# xmcd CD database file
#
# Track frame offsets:
#	150
#	18107
#	58901
#	66293
#	98025
#	114474
#	152836
#	171185
#	179133
#	203154
#	254778
#	284295
#	322030
#
# Disc length: 4498 seconds
#
# Revision: 1
# Processed by: cddbd v1.5.2PL0 Copyright (c) Steve Scherf et al.
# Submitted via: CDex 1.51
#
DISCID=c411900d
DTITLE=JIMI HENDRIX - Ultra Rare Trax
DYEAR=1994
DGENRE=Hard Rock
TTITLE0=Midnight Lightning
TTITLE1=Voovoo Chile
TTITLE2=Rainy Day Tryout 
TTITLE3=Red House
TTITLE4=Bleeding Heart
TTITLE5=Blue Window Jam
TTITLE6=Villanova Junction Blues
TTITLE7=Funky Blues Jam
TTITLE8=Once I had A Woman
TTITLE9=Police Blues
TTITLE10=Country Blues
TTITLE11=Freedom Jam
TTITLE12=Acoustic Medley
EXTD=YEAR: 1994
EXTT0=
EXTT1=
EXTT2=
EXTT3=
EXTT4=
EXTT5=
EXTT6=
EXTT7=
EXTT8=
EXTT9=
EXTT10=
EXTT11=
EXTT12=
PLAYORDER=
